<svg width="64" height="64" viewBox="0 0 64 64" fill="none" xmlns="http://www.w3.org/2000/svg">
<g filter="url(#filter0_d_1_112)">
<rect x="6.25" y="6.25" width="51.5" height="51.5" rx="11.5" fill="#232629"/>
</g>
<path d="M32.1596 29.8611C31.212 29.8611 30.3865 29.6817 29.683 29.3227C28.9938 28.9638 28.4554 28.4469 28.0678 27.7721C27.6945 27.083 27.5078 26.2718 27.5078 25.3386V18.2316C27.5078 17.284 27.6945 16.4728 28.0678 15.7981C28.4554 15.1233 28.9938 14.6064 29.683 14.2474C30.3865 13.8885 31.212 13.709 32.1596 13.709C33.1072 13.709 33.9256 13.8957 34.6147 14.269C35.3039 14.6279 35.8351 15.1448 36.2084 15.8196C36.5817 16.4944 36.7683 17.2984 36.7683 18.2316H34.8301C34.8301 17.3415 34.5932 16.6595 34.1194 16.1857C33.66 15.6975 33.0067 15.4535 32.1596 15.4535C31.3125 15.4535 30.6449 15.6904 30.1568 16.1642C29.683 16.638 29.4461 17.3199 29.4461 18.2101V25.3386C29.4461 26.2287 29.683 26.9179 30.1568 27.406C30.6449 27.8942 31.3125 28.1383 32.1596 28.1383C33.0067 28.1383 33.66 27.8942 34.1194 27.406C34.5932 26.9179 34.8301 26.2287 34.8301 25.3386V23.4003H31.6427V21.6343H36.7683V25.3386C36.7683 26.2574 36.5817 27.0614 36.2084 27.7506C35.8351 28.4254 35.3039 28.9495 34.6147 29.3227C33.9256 29.6817 33.1072 29.8611 32.1596 29.8611Z" fill="#F8FAFC"/>
<path d="M19.2464 29.8611C18.2126 29.8611 17.3225 29.6888 16.5759 29.3443C15.8437 28.9997 15.2766 28.5044 14.8745 27.8583C14.4725 27.2122 14.2644 26.4441 14.25 25.5539H16.1883C16.1883 26.3436 16.4539 26.9681 16.9851 27.4276C17.5307 27.887 18.2844 28.1167 19.2464 28.1167C20.1509 28.1167 20.8544 27.8942 21.3569 27.4491C21.8738 27.004 22.1322 26.3866 22.1322 25.597C22.1322 24.9653 21.9599 24.4125 21.6154 23.9387C21.2851 23.4649 20.8042 23.1347 20.1724 22.948L18.0404 22.2804C16.9636 21.9502 16.1308 21.3974 15.5422 20.6221C14.9679 19.8468 14.6807 18.9351 14.6807 17.887C14.6807 17.04 14.8674 16.3077 15.2407 15.6904C15.6283 15.0586 16.1667 14.5705 16.8559 14.2259C17.545 13.867 18.3562 13.6875 19.2895 13.6875C20.6678 13.6875 21.7733 14.0752 22.606 14.8505C23.4388 15.6114 23.8623 16.6308 23.8767 17.9086H21.9384C21.9384 17.1333 21.7015 16.5303 21.2277 16.0995C20.7683 15.6545 20.115 15.4319 19.2679 15.4319C18.4352 15.4319 17.7819 15.6329 17.3081 16.0349C16.8487 16.4369 16.619 16.9969 16.619 17.7148C16.619 18.3608 16.7913 18.9208 17.1358 19.3946C17.4804 19.8684 17.9758 20.2058 18.6218 20.4068L20.7754 21.0959C21.8235 21.4262 22.6347 21.9861 23.209 22.7757C23.7833 23.5654 24.0705 24.4915 24.0705 25.5539C24.0705 26.4154 23.8695 27.1691 23.4675 27.8152C23.0655 28.4613 22.4983 28.9638 21.7661 29.3227C21.0482 29.6817 20.2083 29.8611 19.2464 29.8611Z" fill="#F8FAFC"/>
<path d="M41.1187 50.0908V48.2733H44.4212V35.7282H41.1187V33.9107H49.7628V35.7282H46.4603V48.2733H49.7628V50.0908H41.1187Z" fill="#F8FAFC"/>
<path d="M32.1507 50.3125C30.6435 50.3125 29.4909 49.8988 28.693 49.0713C27.8951 48.229 27.4961 47.0913 27.4961 45.6579V33.9107H29.4909V45.6579C29.4909 46.5445 29.7052 47.2464 30.1337 47.7636C30.577 48.2808 31.2493 48.5393 32.1507 48.5393C33.0372 48.5393 33.7022 48.2808 34.1455 47.7636C34.5888 47.2464 34.8104 46.5445 34.8104 45.6579V33.9107H36.8052V45.6579C36.8052 47.106 36.4063 48.2438 35.6083 49.0713C34.8252 49.8988 33.6726 50.3125 32.1507 50.3125Z" fill="#F8FAFC"/>
<defs>
<filter id="filter0_d_1_112" x="4.875" y="5.5625" width="54.25" height="54.25" filterUnits="userSpaceOnUse" color-interpolation-filters="sRGB">
<feFlood flood-opacity="0" result="BackgroundImageFix"/>
<feColorMatrix in="SourceAlpha" type="matrix" values="0 0 0 0 0 0 0 0 0 0 0 0 0 0 0 0 0 0 127 0" result="hardAlpha"/>
<feOffset dy="0.6875"/>
<feGaussianBlur stdDeviation="0.6875"/>
<feColorMatrix type="matrix" values="0 0 0 0 0 0 0 0 0 0 0 0 0 0 0 0 0 0 0.28 0"/>
<feBlend mode="normal" in2="BackgroundImageFix" result="effect1_dropShadow_1_112"/>
<feBlend mode="normal" in="SourceGraphic" in2="effect1_dropShadow_1_112" result="shape"/>
</filter>
</defs>
</svg>
